<?xml version="1.0" encoding="utf-8"?>
<!-- Generator: Adobe Illustrator 27.0.0, SVG Export Plug-In . SVG Version: 6.00 Build 0)  -->
<svg version="1.1" id="Layer_2_00000052077725880395468340000000839356789768417171_"
	 xmlns="http://www.w3.org/2000/svg" xmlns:xlink="http://www.w3.org/1999/xlink" x="0px" y="0px" viewBox="0 0 65.5 65.7"
	 style="enable-background:new 0 0 65.5 65.7;" xml:space="preserve">
<style type="text/css">
	.st0{fill:#FFFFFF;}
</style>
<g id="Layer_1-2">
	<g>
		<path class="st0" d="M0,36.7c0-2.4,0-4.8,0-7.2c0.1-0.4,0.2-0.7,0.2-1c1.1-8,4.6-14.8,10.6-20.2c10-9.2,26.2-11.1,38-4.1
			c12.1,7.1,17.7,17.9,16.5,31.9c-1.2,14.8-12.8,27-27.5,29.1c-1.4,0.2-2.8,0.3-4.2,0.4h-1.2c-0.5-0.1-1-0.2-1.5-0.2
			C16.2,65,3.3,53.9,0.5,39.4C0.3,38.5,0.2,37.6,0,36.7z M59.1,33c0-14.8-11.6-26.6-26.2-26.6C18.1,6.4,6.2,18,6.2,32.7
			c0,14.2,10.8,26.7,26.4,26.7C48.8,59.3,59.3,46.4,59.1,33L59.1,33z"/>
		<path class="st0" d="M27.6,47.5c-0.9,0-1.7-0.3-2.4-1c-3.2-3.2-6.5-6.4-9.6-9.6c-1.9-1.9-1.1-4.8,1.4-5.4c1.4-0.3,2.4,0.4,3.3,1.3
			c1.9,1.8,3.7,3.6,5.5,5.5c1.3,1.3,1.7,1.3,3-0.1c5.4-6.2,10.7-12.3,16.1-18.5c0.8-1,1.8-1.9,3.3-1.6c2.6,0.5,3.5,3.2,1.8,5.3
			c-1.6,1.9-3.2,3.8-4.8,5.6c-4.6,5.3-9.1,10.5-13.7,15.8c-0.5,0.6-1.1,1.2-1.7,1.8C29.1,47.3,28.4,47.5,27.6,47.5z"/>
	</g>
</g>
</svg>
